<?xml version="1.0" encoding="UTF-8" standalone="no"?>
<!-- Created with Inkscape (http://www.inkscape.org/) -->

<svg
   xmlns:dc="http://purl.org/dc/elements/1.1/"
   xmlns:cc="http://creativecommons.org/ns#"
   xmlns:rdf="http://www.w3.org/1999/02/22-rdf-syntax-ns#"
   xmlns:svg="http://www.w3.org/2000/svg"
   xmlns="http://www.w3.org/2000/svg"
   xmlns:xlink="http://www.w3.org/1999/xlink"
   xmlns:sodipodi="http://sodipodi.sourceforge.net/DTD/sodipodi-0.dtd"
   xmlns:inkscape="http://www.inkscape.org/namespaces/inkscape"
   width="134.64566"
   height="75.118111"
   id="svg2"
   version="1.1"
   inkscape:version="0.48.4 r9939"
   sodipodi:docname="mate_30.svg"
   inkscape:export-filename="/home/ppp/Dokumentumok/mrtee/othr/mate_price_stickers/PNGs/mate_100.png"
   inkscape:export-xdpi="600"
   inkscape:export-ydpi="600">
  <sodipodi:namedview
     id="base"
     pagecolor="#ffed8e"
     bordercolor="#666666"
     borderopacity="1.0"
     inkscape:pageopacity="1"
     inkscape:pageshadow="2"
     inkscape:zoom="5.22"
     inkscape:cx="74.004065"
     inkscape:cy="37.236399"
     inkscape:document-units="mm"
     inkscape:current-layer="layer1"
     showgrid="false"
     inkscape:snap-global="true"
     inkscape:window-width="1022"
     inkscape:window-height="579"
     inkscape:window-x="0"
     inkscape:window-y="19"
     inkscape:window-maximized="0"
     fit-margin-top="5"
     fit-margin-left="5"
     fit-margin-right="5"
     fit-margin-bottom="5"
     units="mm"
     inkscape:showpageshadow="false"
     showguides="true"
     inkscape:guide-bbox="true">
    <sodipodi:guide
       orientation="1,0"
       position="67.322835,0"
       id="guide3099" />
  </sodipodi:namedview>
  <defs
     id="defs4" />
  <metadata
     id="metadata7">
    <rdf:RDF>
      <cc:Work
         rdf:about="">
        <dc:format>image/svg+xml</dc:format>
        <dc:type
           rdf:resource="http://purl.org/dc/dcmitype/StillImage" />
        <dc:title></dc:title>
      </cc:Work>
    </rdf:RDF>
  </metadata>
  <g
     transform="translate(-267.23992,-292.46789)"
     style="display:inline"
     id="layer1"
     inkscape:groupmode="layer"
     inkscape:label="Layer 1">
    <path
       sodipodi:type="arc"
       style="fill:#f0e3bc;fill-opacity:1;stroke:#ffed8e;stroke-width:3.84097528;stroke-linejoin:miter;stroke-miterlimit:4;stroke-opacity:1;stroke-dasharray:none"
       id="path3103"
       sodipodi:cx="286"
       sodipodi:cy="233.59402"
       sodipodi:rx="99"
       sodipodi:ry="99"
       d="m 385,233.59402 a 99,99 0 1 1 -198,0 99,99 0 1 1 198,0 z"
       transform="matrix(0.29148037,0,0,0.29148037,217.48363,261.97029)" />
    <path
       inkscape:connector-curvature="0"
       style="fill:#ff6600;display:inline"
       d="m 304.35925,298.48345 -1.45607,1.08544 -1.46491,1.08544 1.6414,0.16767 c 0.90295,0.0904 1.86289,0.18567 2.12676,0.2118 l 0.47653,0.0441 -0.43241,-1.05897 c -0.23944,-0.58243 -0.53701,-1.16574 -0.66185,-1.29723 l -0.22945,-0.23827 z m -4.54472,0.22945 -0.60891,0.54713 c -0.33302,0.30139 -0.72725,0.76778 -0.87365,1.04131 l -0.26474,0.49419 1.56198,0 1.56197,0 -0.009,-0.2118 c -0.006,-0.11648 -0.31365,-0.58287 -0.68832,-1.04131 l -0.67951,-0.82952 z m -4.80065,0.10589 -0.86482,1.25311 c -0.47413,0.68915 -0.86482,1.33064 -0.86482,1.42961 l 0,0.18531 0.49418,-0.15002 c 0.2718,-0.0798 1.00248,-0.22701 1.62375,-0.32651 0.62126,-0.0995 1.36705,-0.24554 1.65905,-0.32651 l 0.5383,-0.1412 -0.8207,-0.6795 c -0.4473,-0.3735 -1.02479,-0.8076 -1.2884,-0.9619 l -0.47654,-0.28239 z m 13.83715,0.57361 c -0.0954,0.003 -0.7974,0.37061 -1.56197,0.8207 l -1.39431,0.8207 1.25311,0.31769 c 0.68692,0.17689 1.56198,0.43027 1.95027,0.55595 0.38828,0.12569 0.75661,0.18816 0.81187,0.1412 0.0553,-0.047 -0.12661,-0.66831 -0.39711,-1.37666 -0.27053,-0.70835 -0.56649,-1.28212 -0.66186,-1.27958 z m -17.26996,0.83835 c -0.12753,0 -0.5245,0.5083 -0.87365,1.12956 l -0.62655,1.12956 -0.36182,0 c -0.19911,0 -0.81739,-0.21405 -1.36783,-0.47653 l -0.99719,-0.47654 -0.24709,0.26475 c -0.13391,0.14599 -0.31985,0.78849 -0.41476,1.42077 l -0.1765,1.14722 1.62375,-0.79423 c 0.89046,-0.43468 2.2503,-0.99573 3.02688,-1.25311 0.77657,-0.25737 1.4578,-0.50389 1.50902,-0.54713 0.0513,-0.0432 -0.12504,-0.41011 -0.38829,-0.81187 -0.26324,-0.40177 -0.57847,-0.73245 -0.70597,-0.73245 z m 22.26475,1.11191 -0.46771,0.13237 c -0.25573,0.0738 -1.03015,0.28893 -1.72082,0.46771 l -1.25311,0.31769 1.81789,0.79422 c 1.00131,0.43612 1.82672,0.80509 1.82672,0.8207 10e-4,0.0156 -0.0499,-0.54882 -0.1059,-1.25311 l -0.0971,-1.27958 z m 3.1769,1.76494 c -0.22531,0.0202 -0.71475,0.12036 -1.25311,0.25592 -0.71781,0.18075 -1.30006,0.40496 -1.29723,0.50301 0.001,0.0981 0.73212,0.6333 1.62374,1.19134 0.89163,0.55802 1.63992,1.00477 1.66788,0.98836 0.0278,-0.0164 -0.0846,-0.66383 -0.2471,-1.43843 -0.16248,-0.7746 -0.33,-1.44555 -0.37063,-1.49137 -0.0102,-0.0115 -0.0485,-0.0156 -0.12355,-0.009 z m -33.278,0.32652 -0.18532,1.38548 -0.17649,1.38548 -1.47373,-0.0794 -1.47373,-0.0794 -0.14119,1.40313 -0.1412,1.39431 -0.56478,-0.0441 c -0.31063,-0.0276 -0.90385,-0.11943 -1.32371,-0.20296 l -0.76775,-0.15002 -0.0794,1.75611 -0.0882,1.7473 -1.58844,0.0882 -1.59728,0.0794 0.39711,1.30605 c 0.21558,0.71637 0.38829,1.47724 0.38829,1.68552 l 0,0.37064 -1.15604,0 -1.16486,0 0.15885,0.63538 c 0.0839,0.34946 0.23506,1.09597 0.33534,1.65022 l 0.17649,1.00602 -1.14721,0.34417 -1.15604,0.34416 0.56478,1.11191 c 0.3106,0.60885 0.56478,1.16927 0.56478,1.25311 0,0.0838 -0.24568,0.15002 -0.54713,0.15002 l -0.54713,0 -0.18532,0.30004 -0.17649,0.29122 0.45006,0.68833 c 0.24635,0.37599 0.44123,0.80433 0.44123,0.95307 l 0,0.27356 -1.01484,0.32652 -1.01484,0.33534 0.92659,0.95306 c 0.50839,0.52453 0.95842,0.93009 0.99719,0.8913 0.0388,-0.0388 0.31637,-1.27804 0.61773,-2.75331 l 0.54714,-2.68271 0.90012,-2.24148 c 0.49381,-1.23324 1.35982,-3.01437 1.92379,-3.95347 0.56399,-0.93911 1.55529,-2.40948 2.20617,-3.26515 0.65089,-0.85567 2.07552,-2.39283 3.15925,-3.41516 l 1.96791,-1.85319 1.72965,-1.10309 c 0.95185,-0.60704 1.73536,-1.17423 1.73847,-1.25311 0.003,-0.0789 -0.55321,-0.34592 -1.23546,-0.59126 l -1.24429,-0.44123 z m 36.93143,1.82671 -0.49418,0.18532 c -0.2718,0.10515 -0.84365,0.2668 -1.27076,0.35299 -0.42712,0.0862 -0.77655,0.22944 -0.77658,0.32652 0,0.0971 0.47654,0.58649 1.05897,1.08544 0.58246,0.49894 1.15427,0.91195 1.27076,0.91777 l 0.21179,0.009 0,-1.43843 0,-1.43843 z m 3.1063,2.80626 -1.05897,0.1765 c -0.58243,0.0963 -1.30087,0.1748 -1.59727,0.17649 l -0.53831,0 1.68552,1.76494 c 0.92771,0.97072 2.23367,2.58292 2.90334,3.57401 0.66969,0.99109 1.70437,2.83369 2.29442,4.09467 l 1.07662,2.2856 0.58243,2.25913 0.59125,2.25913 0.28239,2.40032 c 0.15142,1.32018 0.27357,2.63245 0.27357,2.91215 l 0,0.51184 0.98837,-0.75893 c 0.5436,-0.41462 0.98837,-0.82821 0.98837,-0.91777 0,-0.0895 -0.3247,-0.50139 -0.72363,-0.91777 l -0.72363,-0.75892 1.00602,-0.61773 c 0.55425,-0.34254 1.00602,-0.66457 1.00602,-0.71481 0,-0.0502 -0.58233,-0.43703 -1.29724,-0.85599 l -1.29723,-0.75893 1.05014,-1.07661 1.05014,-1.07662 -1.44725,-0.62655 c -0.7958,-0.34235 -1.43582,-0.69687 -1.4296,-0.79423 0.006,-0.0974 0.39109,-0.63008 0.85599,-1.17369 l 0.83835,-0.98836 -1.57962,-0.40594 -1.58845,-0.41476 0.15884,-0.7148 c 0.0866,-0.39318 0.23868,-0.99389 0.33534,-1.33254 l 0.1765,-0.61773 -1.16486,-0.34416 -1.15604,-0.35299 0,-0.24709 c 0,-0.13572 0.19061,-0.69553 0.42358,-1.25311 0.23298,-0.55758 0.42359,-1.06205 0.42359,-1.12074 0,-0.0587 -0.76245,-0.11472 -1.69434,-0.11472 l -1.69435,0 0,-1.72964 0,-1.72965 z m -52.24231,19.29965 -1.26193,0.76775 c -0.69401,0.42114 -1.26596,0.84006 -1.27076,0.93542 -0.005,0.0954 0.49948,0.52254 1.12074,0.95307 0.62126,0.43054 1.13238,0.86653 1.12956,0.9619 -10e-4,0.0954 -0.46072,0.43594 -1.02367,0.75892 l -1.02366,0.59126 0.95307,0.58243 c 0.52561,0.32424 1.04837,0.60485 1.16486,0.61773 l 0.21179,0.0177 0,-3.08865 0,-3.09748 z m 58.8432,3.48577 c -0.0206,-0.004 -0.036,8.4e-4 -0.0441,0.009 -0.0647,0.0647 -0.23697,1.17102 -0.37946,2.4621 l -0.25592,2.34737 -0.56478,2.11793 -0.5736,2.11794 -1.51786,3.1063 -1.51785,3.1063 -1.94143,2.39149 -1.94144,2.3915 -2.3915,1.93261 -2.3915,1.94144 -2.75331,1.38548 c -1.51833,0.76121 -3.26562,1.53588 -3.88287,1.72082 -0.61728,0.18494 -1.12554,0.41111 -1.12074,0.50301 0.005,0.0919 0.67427,0.56763 1.48255,1.05896 0.80829,0.49134 1.5457,0.84455 1.6414,0.7854 0.0957,-0.0591 0.39409,-0.68432 0.66185,-1.38548 l 0.48536,-1.27076 1.04132,0.45006 c 0.57065,0.24703 1.25487,0.51237 1.52667,0.59126 l 0.49419,0.1412 0,-1.72965 0,-1.72964 0.26474,0 c 0.14244,0 0.85933,0.26611 1.59727,0.58243 l 1.34136,0.57361 0.21179,-0.34417 c 0.11539,-0.1867 0.28734,-0.88875 0.38829,-1.56197 l 0.18532,-1.22664 1.24428,0 1.23546,0 0.0883,-1.48255 0.0794,-1.48255 1.19134,-0.0794 1.18251,-0.0882 0.0883,-1.74729 0.0794,-1.7473 1.41196,-0.24709 c 0.77657,-0.13758 1.44344,-0.27698 1.48255,-0.30887 0.0391,-0.0319 -0.11619,-0.68097 -0.34417,-1.43842 l -0.40593,-1.37666 0.33534,-0.22062 c 0.18886,-0.12 0.75044,-0.21836 1.24428,-0.22061 l 0.90012,-0.009 -0.69715,-1.24429 -0.69715,-1.24428 0.22061,-0.1412 c 0.12372,-0.0765 0.70717,-0.22629 1.28841,-0.33534 0.58125,-0.10904 1.05014,-0.28631 1.05014,-0.38829 0,-0.10197 -0.31999,-0.65444 -0.7148,-1.23546 l -0.7148,-1.05896 0.73245,-0.28239 c 0.40492,-0.15395 0.85199,-0.28239 0.99719,-0.28239 0.14521,0 0.26475,-0.11483 0.26475,-0.26474 0,-0.14992 -0.37957,-0.71169 -0.84718,-1.24429 l -0.84717,-0.97072 1.05897,-0.87364 1.05896,-0.88248 -0.97072,-0.83834 c -0.46715,-0.40368 -0.89693,-0.70738 -1.04131,-0.73245 z m -58.82555,2.98275 c -0.14741,0 -0.61464,0.44936 -1.03249,0.99719 -0.41785,0.54783 -0.70469,1.04059 -0.6442,1.09427 0.0605,0.0537 0.53645,0.31655 1.05896,0.58243 l 0.95307,0.48536 -0.91777,0.94424 -0.90895,0.93542 0.80305,0.12355 c 0.44584,0.0665 1.08191,0.1444 1.40313,0.16767 l 0.58243,0.0353 -0.503,-1.90614 c -0.27344,-1.04838 -0.5028,-2.2556 -0.51184,-2.68272 l -0.0177,-0.77657 -0.26474,0 z m 1.35901,5.80666 c -0.0561,-0.0519 -0.44584,0.39362 -0.86483,0.98837 l -0.75892,1.08544 1.04132,0.31769 c 0.57429,0.17647 1.20427,0.36961 1.40313,0.43241 l 0.36181,0.11472 -0.60008,1.17369 -0.59126,1.17368 0.37064,0.23827 0.37946,0.24709 0.95307,0 0.95307,0 -0.20297,0.91777 c -0.11352,0.50478 -0.26902,1.19025 -0.34416,1.51786 l -0.13237,0.59125 1.4296,0.19414 1.43843,0.19415 0,0.28239 c 0,0.15768 -0.18844,0.65719 -0.42359,1.11191 l -0.43241,0.82953 0.64421,0.14119 c 0.35163,0.0786 1.14368,0.17922 1.76494,0.22062 l 1.12956,0.0706 0.0883,1.76494 c 0.0462,0.97072 0.12794,1.76494 0.18532,1.76494 0.0574,0 0.69133,-0.24202 1.40313,-0.54713 l 1.28841,-0.55596 0,1.57963 0,1.5708 0.91777,-0.1765 c 0.50477,-0.1012 1.40379,-0.26713 1.99438,-0.36181 l 1.07662,-0.16767 -0.19415,1.4296 -0.18531,1.43843 1.50902,-0.40593 c 0.83418,-0.22203 1.6717,-0.40397 1.85319,-0.40594 l 0.32652,-0.009 0.66185,1.04132 c 0.36211,0.57218 0.73129,1.14865 0.8207,1.27958 l 0.15884,0.23827 1.29724,-0.72363 1.29723,-0.72363 0.91777,1.13839 c 0.50435,0.6276 0.98207,1.13839 1.05897,1.13839 0.0769,0 0.75367,-0.38577 1.5002,-0.86482 l 1.35018,-0.87365 1.28841,0.9266 1.2884,0.91777 1.23546,-1.20899 1.24429,-1.21781 0.93542,0.69715 c 0.51878,0.38397 1.0998,0.78498 1.28841,0.8913 l 0.34416,0.19414 0.72363,-1.42078 0.7148,-1.4296 -0.21179,0 c -0.12013,0 -0.65481,0.13104 -1.18252,0.28239 -0.52773,0.15134 -2.25558,0.41198 -3.83875,0.58243 l -2.87685,0.30887 -2.65624,-0.30004 -2.65624,-0.29122 -2.25913,-0.59126 -2.25912,-0.59125 -2.28561,-1.07662 c -1.26098,-0.59007 -3.10358,-1.61803 -4.09466,-2.2856 l -1.80907,-1.21781 -2.3562,-2.27677 -2.34737,-2.28561 -1.5708,-2.33854 -1.56198,-2.34738 -0.91777,-2.11793 c -0.50661,-1.16537 -0.96752,-2.16309 -1.02366,-2.215 z m 37.51386,17.28762 c -0.0203,0.007 -0.0414,0.0104 -0.0618,0.0177 -0.0301,0.0107 -0.0581,0.0247 -0.0882,0.0353 l 0.0882,-0.0265 0.0618,-0.0265 z m -3.9623,1.09426 c -0.0413,0.008 -0.0822,0.0184 -0.12355,0.0265 l -0.49418,0.13237 -0.26474,0.009 c -0.0205,0.003 -0.0413,0.005 -0.0618,0.009 l 0.32651,-0.009 0.61773,-0.16767 z m -9.25712,0.32652 0.16767,0.0353 0.12354,0 c -0.0204,-0.002 -0.0413,-0.006 -0.0618,-0.009 l -0.0618,0 -0.0794,-0.0177 c -0.029,-0.004 -0.0593,-0.005 -0.0882,-0.009 z"
       id="path3105" />
    <path
       inkscape:connector-curvature="0"
       style="fill:#00004e;fill-opacity:1"
       d="m 300.84702,301.75742 c -1.39857,0 -2.77702,0.10427 -4.12114,0.30004 l 4.18291,0 4.05937,0 c -1.34412,-0.19577 -2.72258,-0.30004 -4.12114,-0.30004 z m -4.18292,0.30887 c -0.36258,0.0536 -0.71865,0.10926 -1.07661,0.17649 l -0.1059,0.0265 -1.63257,0.45006 -2.40032,0.6442 -0.009,0 -2.81509,1.37666 -2.8239,1.37665 -1.83554,1.39431 -1.83555,1.3943 0,-0.009 1.83555,-1.3943 1.83554,-1.39431 2.8239,-1.37665 2.81509,-1.36783 c -11.00733,3.87637 -18.89372,14.35868 -18.89372,26.69476 0,15.18768 11.95314,27.57878 26.96833,28.27438 l 0.15885,0 1.94143,-0.053 1.81789,-0.0441 c 14.42178,-1.30526 25.71522,-13.41454 25.71522,-28.17731 0,-8.83513 -4.04701,-16.7225 -10.38669,-21.91177 l -1.63257,-1.12956 -2.10911,-1.45608 -0.0265,-0.0177 -2.29442,-1.07661 -2.11793,-0.98837 c -0.006,-0.002 -0.0115,-0.007 -0.0176,-0.009 -0.13498,-0.0493 -0.27,-0.10272 -0.40594,-0.15002 l -2.18853,-0.59125 -1.42078,-0.39712 c -0.0205,-0.004 -0.0413,-0.005 -0.0618,-0.009 -0.48372,-0.0978 -0.96374,-0.1831 -1.45608,-0.25592 l -4.12114,0 -4.24469,0 z m 18.32893,3.47693 c -1.37529,-0.79481 -2.82385,-1.481 -4.33293,-2.0385 l 2.03851,0.95306 2.29442,1.08544 z m -15.3197,52.78945 c 0.38936,0.0159 0.78042,0.0265 1.17369,0.0265 0.8353,0 1.66286,-0.0351 2.47974,-0.1059 l -1.71199,0.0353 -1.94144,0.0441 z m -4.19174,-56.06341 c -1.37871,0.26453 -2.72443,0.62877 -4.02407,1.08544 l 2.3915,-0.64421 1.63257,-0.44123 z m 11.12797,0.0706 1.359,0.37947 2.09146,0.56478 c -1.11812,-0.38443 -2.27389,-0.70088 -3.45046,-0.94425 z m -3.52989,0.91777 1.80907,0.20297 1.80906,0.20297 2.61212,0.86482 2.61211,0.856 2.13559,1.21781 2.13558,1.22664 1.95908,1.57079 1.95026,1.57963 1.57963,1.95026 1.5708,1.95026 1.21781,2.14441 1.21781,2.13558 0.86482,2.61211 0.86482,2.60329 0.34417,2.88569 0.34416,2.87685 -0.31769,2.80626 -0.32651,2.81509 -0.74128,2.3562 c -0.40904,1.297 -1.16889,3.19966 -1.68552,4.22703 l -0.93542,1.87084 -1.72082,2.27678 -1.72082,2.2856 -1.27076,1.11191 -1.26193,1.12074 -0.63538,-0.15002 c -0.34534,-0.0835 -0.89987,-0.40273 -1.23546,-0.70597 l -0.60891,-0.54714 -0.52065,0.13237 -0.52066,0.13237 0.60008,0.0353 0.60008,0.0265 0.34416,0.40594 0.33534,0.40594 -0.0883,0.93542 -0.0971,0.93542 -0.70597,-1.20016 -0.70598,-1.20017 -0.84717,0.18532 c -0.46595,0.10175 -0.97425,0.18306 -1.12957,0.18532 -0.15531,0.002 -0.5692,-0.0108 -0.92659,-0.0353 l -0.65303,-0.0529 -0.40594,-0.97072 c -0.22504,-0.53862 -0.41476,-1.11046 -0.41476,-1.27076 l 0,-0.30004 0.28239,0 0.28239,0 0,0.67068 0,0.66185 0.52066,0.46771 0.51183,0.45888 0.45889,0 c 0.24943,0 0.77191,-0.11534 1.16486,-0.26474 l 0.7148,-0.27356 -0.41476,-0.98837 c -0.22749,-0.54453 -0.41476,-1.10374 -0.41476,-1.23546 l 0,-0.23827 1.55315,-0.6442 1.55315,-0.64421 0.0176,-0.32651 c 0.01,-0.17929 0.0639,-0.74305 0.11472,-1.26194 l 0.0883,-0.94423 0.31769,-0.31769 0.30886,-0.30886 0,-0.93542 0,-0.93542 0.56478,-0.56478 0.56478,-0.56478 0,-0.54714 0,-0.54713 0.61773,-1.04131 0.60891,-1.0325 -0.29122,-0.45888 -0.29121,-0.46771 0.29121,-0.63538 0.29122,-0.63538 -0.32651,-0.70598 -0.32652,-0.70597 0.856,-2.15323 0.856,-2.14441 0.0882,-1.30606 0.0971,-1.31488 -0.29122,0.63538 -0.28239,0.62655 -0.62656,-0.15884 -0.63538,-0.15885 -1.05896,2.568 -1.05897,2.55916 -0.6442,-0.16767 -0.64421,-0.15884 -0.61773,0.61773 -0.62655,0.62655 0.15884,0.97072 0.15885,0.97955 -0.45006,0.95306 -0.45006,0.94425 -0.68833,0.17649 -0.68833,0.16767 -1.45607,1.32371 c -0.80199,0.72613 -1.72482,1.54786 -2.04734,1.82672 l -0.59125,0.503 -1.87084,-2.51504 -1.87967,-2.51504 -1.27076,-1.12074 -1.27958,-1.12074 0.46771,-1.37666 0.45888,-1.38548 0.8207,-1.20016 c 0.45047,-0.6618 1.00231,-1.64281 1.22664,-2.1797 0.22433,-0.5369 0.40594,-1.03414 0.40594,-1.11191 0,-0.0778 -0.19275,-0.0743 -0.43242,0.0176 l -0.43241,0.16767 0.1412,0.15002 0.15002,0.15002 -0.98837,1.82672 c -0.54383,1.00686 -1.30042,2.20741 -1.68552,2.66506 l -0.70598,0.82953 0,1.5002 0,1.5002 -0.45888,0.37946 -0.45889,0.38829 -0.42358,-0.63538 -0.41476,-0.63538 -0.32652,0 -0.31769,0 0.0618,-1.83554 0.0618,-1.83554 -0.63538,0 -0.63538,0 0.0618,1.68552 0.053,1.6767 -0.38829,-0.15885 -0.39711,-0.15002 -0.7148,-1.50902 -0.7148,-1.50903 -1.13839,-0.93542 -1.14721,-0.93542 -0.56479,-1.08544 c -0.31379,-0.59748 -0.52794,-1.13108 -0.46771,-1.19134 0.0603,-0.0602 0.504,0.43726 0.97955,1.11192 l 0.86482,1.22663 2.02086,0.20297 2.02086,0.20297 2.23265,-0.19414 2.23265,-0.19415 0.72363,-1.09426 c 0.39611,-0.59856 0.7148,-1.14413 0.7148,-1.21781 0,-0.0737 -0.41299,-0.26017 -0.91777,-0.40594 -0.50477,-0.14577 -1.17192,-0.35917 -1.48255,-0.47653 l -0.56478,-0.2118 0.28239,0.30004 c 0.15531,0.16602 0.71006,0.41561 1.22663,0.54713 l 0.93542,0.23827 -0.6089,0.76775 -0.60008,0.76775 -0.90895,0 -0.90012,0 -0.5736,-0.38829 -0.56479,-0.39711 -1.02366,-0.0882 -1.0325,-0.0971 -0.5383,0.48536 -0.53831,0.48536 -0.91777,0 -0.91777,0 -0.52948,-0.63538 c -0.29154,-0.34946 -0.54205,-0.7156 -0.54714,-0.8207 -0.005,-0.10509 0.15002,-0.24246 0.34417,-0.30886 0.19414,-0.0664 0.0828,-0.0817 -0.25592,-0.0265 l -0.61773,0.1059 -0.70598,-0.27357 -0.70597,-0.26474 0.30004,0.856 c 0.16469,0.47243 0.72975,1.49905 1.25311,2.27677 0.52335,0.77772 0.94424,1.58834 0.94424,1.80024 l 0,0.37947 -0.49418,0.25591 -0.49419,0.25592 -0.56478,-0.22062 c -0.31063,-0.12488 -0.86392,-0.23619 -1.23546,-0.24709 l -0.6795,-0.0265 -1.43843,1.23546 -1.44725,1.23546 -1.44726,0.72363 -1.43842,0.73245 -3.85641,4.04172 -3.8564,4.03289 -0.27356,-0.42358 c -0.14992,-0.23298 -0.66143,-1.35096 -1.13839,-2.48857 -0.47696,-1.13762 -1.1159,-3.01652 -1.41195,-4.17409 l -0.53831,-2.10029 -0.18532,-2.47092 -0.18532,-2.46209 0.33534,-2.50622 0.33534,-2.49739 0.72363,-2.29443 c 0.39848,-1.26356 1.14244,-3.1379 1.65904,-4.16527 l 0.94425,-1.87083 1.73846,-2.30326 1.73847,-2.31207 2.02086,-1.70317 c 1.10986,-0.93854 2.86626,-2.21846 3.90935,-2.84156 l 1.89732,-1.13839 2.16205,-0.82952 c 1.18663,-0.46077 2.21345,-0.78695 2.2856,-0.7148 0.0721,0.0722 -0.072,1.76416 -0.31769,3.75933 l -0.44123,3.62695 -0.0706,3.37987 -0.0706,3.37987 -0.84717,0.21179 c -0.46595,0.11798 -2.49916,0.53236 -4.51826,0.91777 -2.01909,0.38541 -4.72617,1.01028 -6.01845,1.38548 l -2.34738,0.6795 -0.31768,0.31769 -0.31769,0.31769 0.30886,0.31769 0.31769,0.31769 1.6414,0.37946 1.65022,0.38829 4.47413,0.31769 4.47413,0.30887 0.63538,-0.59126 0.63538,-0.60008 1.95026,0.17649 1.95026,0.16767 0.56478,-0.42358 0.56479,-0.43241 -0.31769,-0.32652 -0.31769,-0.32651 -4.20057,-0.26474 c -2.30916,-0.14738 -4.31404,-0.30155 -4.45648,-0.34417 -0.14241,-0.0426 0.85309,-0.48341 2.215,-0.97954 l 2.47975,-0.90895 3.37986,0 3.37987,0 3.01805,-0.44123 c 1.65908,-0.24324 4.21645,-0.73324 5.69194,-1.09427 l 2.68272,-0.66185 -2.12676,-0.0265 -2.11793,-0.0353 -0.67068,-3.1769 c -0.36733,-1.74729 -1.08815,-4.63827 -1.59727,-6.42439 -0.50913,-1.78612 -1.01404,-3.48224 -1.12957,-3.77698 l -0.21179,-0.5383 z m 11.96631,2.31208 2.08264,1.43843 1.54432,1.06779 c -1.14062,-0.92608 -2.34936,-1.76427 -3.62696,-2.50622 z m 4.6065,12.16928 c -0.71922,0 -2.57797,0.20343 -4.12996,0.45006 l -2.82391,0.45006 -4.27116,1.21781 -4.27116,1.20899 -2.20618,0.36181 -2.20618,0.35299 0.92659,0.83835 0.91777,0.83834 2.03851,-0.18531 2.03851,-0.18532 0.18532,0.5736 0.18532,0.57361 0.46771,0 c 0.26132,-10e-4 1.87437,-0.3698 3.58283,-0.8207 1.70847,-0.4509 3.81352,-1.08713 4.6771,-1.41195 0.86361,-0.32482 2.32498,-1.04287 3.2475,-1.59728 0.92254,-0.55441 1.96261,-1.2705 2.31207,-1.59727 0.34946,-0.32676 0.63538,-0.70128 0.63538,-0.82952 l 0,-0.23827 -1.30606,0 z m -22.07061,4.51825 0.0265,0.94425 0.0265,0.93542 -0.6795,0.97072 -0.67068,0.96189 0.61773,-0.52948 0.61773,-0.53831 0,0.83835 c 0,0.46413 0.0906,0.92895 0.19415,1.03249 0.10352,0.10354 0.1988,0.18617 0.21179,0.18532 0.0129,-8.5e-4 0.0642,-1.08092 0.11472,-2.40032 l 0.0883,-2.40033 -0.27357,0 -0.27356,0 z m 2.41798,1.39431 c -0.0374,-0.0365 -0.11567,0.54289 -0.19415,1.42078 l -0.16767,1.82671 -0.70598,0.19415 -0.70597,0.19414 0.58243,0.0265 0.58243,0.0265 0.33534,-0.33534 0.33534,-0.33534 0,-0.83835 0,-0.82952 0.56478,0.50301 c 0.31063,0.28113 0.56478,0.42492 0.56478,0.30887 0,-0.11607 -0.25415,-0.54052 -0.56478,-0.93542 -0.31063,-0.39491 -0.58208,-0.92284 -0.60891,-1.17369 -0.003,-0.0313 -0.0123,-0.0477 -0.0176,-0.053 z m 21.80586,0.27356 -0.27356,0.16767 c -0.1545,0.0955 -0.42845,0.43821 -0.60008,0.75893 l -0.30887,0.58243 0.30887,-0.19414 0.30886,-0.18532 0,0.44123 c 0,0.24214 0.082,0.43241 0.1765,0.43241 l 0.16767,0 -0.1765,-0.72362 -0.18532,-0.73245 0.29122,0.18532 0.29121,0.17649 0,-0.45889 0,-0.45006 z m -1.13838,1.57963 -0.27357,0.42358 c -0.15054,0.23298 -0.26439,0.6142 -0.25592,0.84718 l 0.0177,0.42358 0.23827,-0.56478 c 0.13349,-0.31063 0.25627,-0.69186 0.26474,-0.84717 l 0.009,-0.28239 z m -24.80628,0.43241 -0.44123,0.16767 c -0.24105,0.0925 -0.44124,0.22135 -0.44124,0.28239 0,0.061 0.11861,0.1059 0.26474,0.1059 0.14614,0 0.34636,-0.12003 0.44124,-0.27357 l 0.17649,-0.28239 z m 2.94746,2.2503 c 0.16455,0 0.449,0.15779 0.63538,0.34417 0.18638,0.18637 0.33534,0.44053 0.33534,0.56478 l 0,0.22061 -0.98837,0 -0.98837,0 0.35299,-0.56478 c 0.19397,-0.31063 0.48848,-0.56478 0.65303,-0.56478 z m 20.30567,0 0.29121,0.009 c 0.15814,0.002 0.4507,0.10994 0.65303,0.23827 l 0.37064,0.22944 -0.88247,2.23265 c -0.48571,1.22831 -0.98103,2.33621 -1.09427,2.45327 l -0.20297,0.2118 -0.48535,-0.36182 -0.48536,-0.35299 0.91777,-2.32972 0.91777,-2.32972 z m -3.23867,4.18292 0.45006,0.16767 c 0.24565,0.0943 0.4998,0.16767 0.56478,0.16767 0.065,0 0.11472,0.18343 0.11472,0.40593 l 0,0.40594 0.56478,0.17649 0.56478,0.18532 0.56478,-0.18532 0.56479,-0.17649 0,0.44123 0,0.44124 -1.06779,0 -1.05897,0 -0.63538,-0.43241 -0.62655,-0.44124 0,-0.58243 0,-0.5736 z m -0.71481,0.90012 c 0.0706,0 0.44477,0.32122 0.82953,0.70597 l 0.69715,0.69716 1.15604,0.18532 1.14721,0.18531 -0.31769,0.38829 -0.32651,0.37946 -0.90895,0 -0.90894,0 -0.75011,-0.68832 -0.7501,-0.68833 0,-0.58243 c 0,-0.31805 0.0618,-0.58243 0.13237,-0.58243 z m 0.13238,2.03851 0.98836,0.46771 0.98837,0.45888 0.009,0.28239 c 0.004,0.15532 -0.23935,0.69539 -0.54713,1.20016 l -0.56478,0.91777 -0.39712,0 c -0.21806,0 -0.67728,-0.22253 -1.02366,-0.50301 l -0.62657,-0.51183 0.58243,-1.15604 0.59126,-1.15603 z m 3.36221,0.7854 0.45006,0 0.44124,0 0,0.38828 c 0,0.2089 -0.48885,1.14592 -1.09427,2.08264 l -1.10309,1.70317 -1.01484,0.81187 c -0.55941,0.44637 -1.02367,0.93012 -1.02367,1.08544 -5.6e-4,0.15531 0.28601,0.82292 0.63538,1.48255 l 0.63538,1.20016 -0.30004,0.49419 -0.30886,0.49418 -2.09146,0.70598 c -1.15193,0.38828 -2.17969,0.81996 -2.27678,0.95307 l -0.17649,0.23826 -0.6089,-0.19414 -0.61773,-0.19414 -0.45007,0.37946 c -0.25124,0.20697 -0.88927,1.03779 -1.41195,1.85319 l -0.95307,1.48255 -0.26474,0 c -0.14509,0 -0.39519,-0.23789 -0.55596,-0.53831 l -0.29121,-0.54713 0,-2.59446 0,-2.59447 1.47372,-2.01204 1.46491,-2.02086 1.5355,-1.41195 c 0.84471,-0.77657 1.80654,-1.55865 2.13558,-1.74729 0.32901,-0.18865 0.6795,-0.34748 0.7854,-0.35299 l 0.19414,-0.0177 -0.0706,0.67068 -0.0706,0.67068 -0.59126,0.74127 -0.58243,0.74128 -0.30887,0 -0.31769,0 0,0.27356 0,0.27357 1.90614,-0.70598 1.90614,-0.70597 1.4649,-1.54433 1.45608,-1.54432 z m -4.45648,2.8239 c 0.14617,0 0.26474,0.12708 0.26474,0.2824 l 0,0.28239 -0.44123,0 -0.43241,0 0.16766,-0.28239 c 0.096,-0.15532 0.2951,-0.2824 0.44124,-0.2824 z"
       id="path3107" />
    <path
       transform="matrix(0.27929103,0,0,0.27929103,220.96978,264.81764)"
       d="m 385,233.59402 a 99,99 0 1 1 -198,0 99,99 0 1 1 198,0 z"
       sodipodi:ry="99"
       sodipodi:rx="99"
       sodipodi:cy="233.59402"
       sodipodi:cx="286"
       id="path3109"
       style="fill:none;stroke:#00004e;stroke-width:4.54994488;stroke-linejoin:miter;stroke-miterlimit:4;stroke-opacity:1;stroke-dasharray:none"
       sodipodi:type="arc" />
    <g
       transform="matrix(0.28239086,0,0,0.28239086,191.55464,260.63642)"
       id="g3111">
      <text
         xml:space="preserve"
         style="font-size:64px;font-style:normal;font-variant:normal;font-weight:bold;font-stretch:normal;text-align:center;line-height:125%;letter-spacing:0px;word-spacing:0px;text-anchor:middle;fill:#ff6600;fill-opacity:1;stroke:#ffed8e;stroke-width:4;stroke-miterlimit:4;stroke-opacity:1;stroke-dasharray:none;font-family:Tribeca;-inkscape-font-specification:Tribeca Bold"
         x="384.42276"
         y="317.39075"
         id="text3113"
         sodipodi:linespacing="125%"><tspan
           sodipodi:role="line"
           x="384.42276"
           y="317.39075"
           id="tspan3115">30</tspan></text>
      <text
         inkscape:export-ydpi="600"
         inkscape:export-xdpi="600"
         inkscape:export-filename="/home/ppp/Dokumentumok/mrtee/othr/mate_price_stickers/mate_50.png"
         sodipodi:linespacing="125%"
         id="text3117"
         y="317.39075"
         x="384.42276"
         style="font-size:64px;font-style:normal;font-variant:normal;font-weight:bold;font-stretch:normal;text-align:center;line-height:125%;letter-spacing:0px;word-spacing:0px;text-anchor:middle;fill:#ff6600;fill-opacity:1;stroke:none;font-family:Tribeca;-inkscape-font-specification:Tribeca Bold"
         xml:space="preserve"><tspan
           id="tspan3119"
           y="317.39075"
           x="384.42276"
           sodipodi:role="line">30</tspan></text>
    </g>
    <path
       id="path4015"
       d="m 371.98377,298.48345 -1.45607,1.08544 -1.46491,1.08544 1.6414,0.16767 c 0.90295,0.0904 1.86289,0.18567 2.12676,0.2118 l 0.47653,0.0441 -0.43241,-1.05897 c -0.23944,-0.58243 -0.53701,-1.16574 -0.66185,-1.29723 l -0.22945,-0.23827 z m -4.54472,0.22945 -0.60891,0.54713 c -0.33302,0.30139 -0.72725,0.76778 -0.87365,1.04131 l -0.26474,0.49419 1.56198,0 1.56197,0 -0.009,-0.2118 c -0.006,-0.11648 -0.31365,-0.58287 -0.68832,-1.04131 l -0.67951,-0.82952 z m -4.80065,0.10589 -0.86482,1.25311 c -0.47413,0.68915 -0.86482,1.33064 -0.86482,1.42961 l 0,0.18531 0.49418,-0.15002 c 0.2718,-0.0798 1.00248,-0.22701 1.62375,-0.32651 0.62126,-0.0995 1.36705,-0.24554 1.65905,-0.32651 l 0.5383,-0.1412 -0.8207,-0.6795 c -0.4473,-0.3735 -1.02479,-0.8076 -1.2884,-0.9619 l -0.47654,-0.28239 z m 13.83715,0.57361 c -0.0954,0.003 -0.7974,0.37061 -1.56197,0.8207 l -1.39431,0.8207 1.25311,0.31769 c 0.68692,0.17689 1.56198,0.43027 1.95027,0.55595 0.38828,0.12569 0.75661,0.18816 0.81187,0.1412 0.0553,-0.047 -0.12661,-0.66831 -0.39711,-1.37666 -0.27053,-0.70835 -0.56649,-1.28212 -0.66186,-1.27958 z m -17.26996,0.83835 c -0.12753,0 -0.5245,0.5083 -0.87365,1.12956 l -0.62655,1.12956 -0.36182,0 c -0.19911,0 -0.81739,-0.21405 -1.36783,-0.47653 l -0.99719,-0.47654 -0.24709,0.26475 c -0.13391,0.14599 -0.31985,0.78849 -0.41476,1.42077 l -0.1765,1.14722 1.62375,-0.79423 c 0.89046,-0.43468 2.2503,-0.99573 3.02688,-1.25311 0.77657,-0.25737 1.4578,-0.50389 1.50902,-0.54713 0.0513,-0.0432 -0.12504,-0.41011 -0.38829,-0.81187 -0.26324,-0.40177 -0.57847,-0.73245 -0.70597,-0.73245 z m 22.26475,1.11191 -0.46771,0.13237 c -0.25573,0.0738 -1.03015,0.28893 -1.72082,0.46771 l -1.25311,0.31769 1.81789,0.79422 c 1.00131,0.43612 1.82672,0.80509 1.82672,0.8207 10e-4,0.0156 -0.0499,-0.54882 -0.1059,-1.25311 l -0.0971,-1.27958 z m 3.1769,1.76494 c -0.22531,0.0202 -0.71475,0.12036 -1.25311,0.25592 -0.71781,0.18075 -1.30006,0.40496 -1.29723,0.50301 10e-4,0.0981 0.73212,0.6333 1.62374,1.19134 0.89163,0.55802 1.63992,1.00477 1.66788,0.98836 0.0278,-0.0164 -0.0846,-0.66383 -0.2471,-1.43843 -0.16248,-0.7746 -0.33,-1.44555 -0.37063,-1.49137 -0.0102,-0.0115 -0.0485,-0.0156 -0.12355,-0.009 z m -33.278,0.32652 -0.18532,1.38548 -0.17649,1.38548 -1.47373,-0.0794 -1.47373,-0.0794 -0.14119,1.40313 -0.1412,1.39431 -0.56478,-0.0441 c -0.31063,-0.0276 -0.90385,-0.11943 -1.32371,-0.20296 l -0.76775,-0.15002 -0.0794,1.75611 -0.0882,1.7473 -1.58844,0.0882 -1.59728,0.0794 0.39711,1.30605 c 0.21558,0.71637 0.38829,1.47724 0.38829,1.68552 l 0,0.37064 -1.15604,0 -1.16486,0 0.15885,0.63538 c 0.0839,0.34946 0.23506,1.09597 0.33534,1.65022 l 0.17649,1.00602 -1.14721,0.34417 -1.15604,0.34416 0.56478,1.11191 c 0.3106,0.60885 0.56478,1.16927 0.56478,1.25311 0,0.0838 -0.24568,0.15002 -0.54713,0.15002 l -0.54713,0 -0.18532,0.30004 -0.17649,0.29122 0.45006,0.68833 c 0.24635,0.37599 0.44123,0.80433 0.44123,0.95307 l 0,0.27356 -1.01484,0.32652 -1.01484,0.33534 0.92659,0.95306 c 0.50839,0.52453 0.95842,0.93009 0.99719,0.8913 0.0388,-0.0388 0.31637,-1.27804 0.61773,-2.75331 l 0.54714,-2.68271 0.90012,-2.24148 c 0.49381,-1.23324 1.35982,-3.01437 1.92379,-3.95347 0.56399,-0.93911 1.55529,-2.40948 2.20617,-3.26515 0.65089,-0.85567 2.07552,-2.39283 3.15925,-3.41516 l 1.96791,-1.85319 1.72965,-1.10309 c 0.95185,-0.60704 1.73536,-1.17423 1.73847,-1.25311 0.003,-0.0789 -0.55321,-0.34592 -1.23546,-0.59126 l -1.24429,-0.44123 z m 36.93143,1.82671 -0.49418,0.18532 c -0.2718,0.10515 -0.84365,0.2668 -1.27076,0.35299 -0.42712,0.0862 -0.77655,0.22944 -0.77658,0.32652 0,0.0971 0.47654,0.58649 1.05897,1.08544 0.58246,0.49894 1.15427,0.91195 1.27076,0.91777 l 0.21179,0.009 0,-1.43843 0,-1.43843 z m 3.1063,2.80626 -1.05897,0.1765 c -0.58243,0.0963 -1.30087,0.1748 -1.59727,0.17649 l -0.53831,0 1.68552,1.76494 c 0.92771,0.97072 2.23367,2.58292 2.90334,3.57401 0.66969,0.99109 1.70437,2.83369 2.29442,4.09467 l 1.07662,2.2856 0.58243,2.25913 0.59125,2.25913 0.28239,2.40032 c 0.15142,1.32018 0.27357,2.63245 0.27357,2.91215 l 0,0.51184 0.98837,-0.75893 c 0.5436,-0.41462 0.98837,-0.82821 0.98837,-0.91777 0,-0.0895 -0.3247,-0.50139 -0.72363,-0.91777 l -0.72363,-0.75892 1.00602,-0.61773 c 0.55425,-0.34254 1.00602,-0.66457 1.00602,-0.71481 0,-0.0502 -0.58233,-0.43703 -1.29724,-0.85599 l -1.29723,-0.75893 1.05014,-1.07661 1.05014,-1.07662 -1.44725,-0.62655 c -0.7958,-0.34235 -1.43582,-0.69687 -1.4296,-0.79423 0.006,-0.0974 0.39109,-0.63008 0.85599,-1.17369 l 0.83835,-0.98836 -1.57962,-0.40594 -1.58845,-0.41476 0.15884,-0.7148 c 0.0866,-0.39318 0.23868,-0.99389 0.33534,-1.33254 l 0.1765,-0.61773 -1.16486,-0.34416 -1.15604,-0.35299 0,-0.24709 c 0,-0.13572 0.19061,-0.69553 0.42358,-1.25311 0.23298,-0.55758 0.42359,-1.06205 0.42359,-1.12074 0,-0.0587 -0.76245,-0.11472 -1.69434,-0.11472 l -1.69435,0 0,-1.72964 0,-1.72965 z m -52.24231,19.29965 -1.26193,0.76775 c -0.69401,0.42114 -1.26596,0.84006 -1.27076,0.93542 -0.005,0.0954 0.49948,0.52254 1.12074,0.95307 0.62126,0.43054 1.13238,0.86653 1.12956,0.9619 -0.001,0.0954 -0.46072,0.43594 -1.02367,0.75892 l -1.02366,0.59126 0.95307,0.58243 c 0.52561,0.32424 1.04837,0.60485 1.16486,0.61773 l 0.21179,0.0177 0,-3.08865 0,-3.09748 z m 58.8432,3.48577 c -0.0206,-0.004 -0.036,8.4e-4 -0.0441,0.009 -0.0647,0.0647 -0.23697,1.17102 -0.37946,2.4621 l -0.25592,2.34737 -0.56478,2.11793 -0.5736,2.11794 -1.51786,3.1063 -1.51785,3.1063 -1.94143,2.39149 -1.94144,2.3915 -2.3915,1.93261 -2.3915,1.94144 -2.75331,1.38548 c -1.51833,0.76121 -3.26562,1.53588 -3.88287,1.72082 -0.61728,0.18494 -1.12554,0.41111 -1.12074,0.50301 0.005,0.0919 0.67427,0.56763 1.48255,1.05896 0.80829,0.49134 1.5457,0.84455 1.6414,0.7854 0.0957,-0.0591 0.39409,-0.68432 0.66185,-1.38548 l 0.48536,-1.27076 1.04132,0.45006 c 0.57065,0.24703 1.25487,0.51237 1.52667,0.59126 l 0.49419,0.1412 0,-1.72965 0,-1.72964 0.26474,0 c 0.14244,0 0.85933,0.26611 1.59727,0.58243 l 1.34136,0.57361 0.21179,-0.34417 c 0.11539,-0.1867 0.28734,-0.88875 0.38829,-1.56197 l 0.18532,-1.22664 1.24428,0 1.23546,0 0.0883,-1.48255 0.0794,-1.48255 1.19134,-0.0794 1.18251,-0.0882 0.0883,-1.74729 0.0794,-1.7473 1.41196,-0.24709 c 0.77657,-0.13758 1.44344,-0.27698 1.48255,-0.30887 0.0391,-0.0319 -0.11619,-0.68097 -0.34417,-1.43842 l -0.40593,-1.37666 0.33534,-0.22062 c 0.18886,-0.12 0.75044,-0.21836 1.24428,-0.22061 l 0.90012,-0.009 -0.69715,-1.24429 -0.69715,-1.24428 0.22061,-0.1412 c 0.12372,-0.0765 0.70717,-0.22629 1.28841,-0.33534 0.58125,-0.10904 1.05014,-0.28631 1.05014,-0.38829 0,-0.10197 -0.31999,-0.65444 -0.7148,-1.23546 l -0.7148,-1.05896 0.73245,-0.28239 c 0.40492,-0.15395 0.85199,-0.28239 0.99719,-0.28239 0.14521,0 0.26475,-0.11483 0.26475,-0.26474 0,-0.14992 -0.37957,-0.71169 -0.84718,-1.24429 l -0.84717,-0.97072 1.05897,-0.87364 1.05896,-0.88248 -0.97072,-0.83834 c -0.46715,-0.40368 -0.89693,-0.70738 -1.04131,-0.73245 z m -58.82555,2.98275 c -0.14741,0 -0.61464,0.44936 -1.03249,0.99719 -0.41785,0.54783 -0.70469,1.04059 -0.6442,1.09427 0.0605,0.0537 0.53645,0.31655 1.05896,0.58243 l 0.95307,0.48536 -0.91777,0.94424 -0.90895,0.93542 0.80305,0.12355 c 0.44584,0.0665 1.08191,0.1444 1.40313,0.16767 l 0.58243,0.0353 -0.503,-1.90614 c -0.27344,-1.04838 -0.5028,-2.2556 -0.51184,-2.68272 l -0.0177,-0.77657 -0.26474,0 z m 1.35901,5.80666 c -0.0561,-0.0519 -0.44584,0.39362 -0.86483,0.98837 l -0.75892,1.08544 1.04132,0.31769 c 0.57429,0.17647 1.20427,0.36961 1.40313,0.43241 l 0.36181,0.11472 -0.60008,1.17369 -0.59126,1.17368 0.37064,0.23827 0.37946,0.24709 0.95307,0 0.95307,0 -0.20297,0.91777 c -0.11352,0.50478 -0.26902,1.19025 -0.34416,1.51786 l -0.13237,0.59125 1.4296,0.19414 1.43843,0.19415 0,0.28239 c 0,0.15768 -0.18844,0.65719 -0.42359,1.11191 l -0.43241,0.82953 0.64421,0.14119 c 0.35163,0.0786 1.14368,0.17922 1.76494,0.22062 l 1.12956,0.0706 0.0883,1.76494 c 0.0462,0.97072 0.12794,1.76494 0.18532,1.76494 0.0574,0 0.69133,-0.24202 1.40313,-0.54713 l 1.28841,-0.55596 0,1.57963 0,1.5708 0.91777,-0.1765 c 0.50477,-0.1012 1.40379,-0.26713 1.99438,-0.36181 l 1.07662,-0.16767 -0.19415,1.4296 -0.18531,1.43843 1.50902,-0.40593 c 0.83418,-0.22203 1.6717,-0.40397 1.85319,-0.40594 l 0.32652,-0.009 0.66185,1.04132 c 0.36211,0.57218 0.73129,1.14865 0.8207,1.27958 l 0.15884,0.23827 1.29724,-0.72363 1.29723,-0.72363 0.91777,1.13839 c 0.50435,0.6276 0.98207,1.13839 1.05897,1.13839 0.0769,0 0.75367,-0.38577 1.5002,-0.86482 l 1.35018,-0.87365 1.28841,0.9266 1.2884,0.91777 1.23546,-1.20899 1.24429,-1.21781 0.93542,0.69715 c 0.51878,0.38397 1.0998,0.78498 1.28841,0.8913 l 0.34416,0.19414 0.72363,-1.42078 0.7148,-1.4296 -0.21179,0 c -0.12013,0 -0.65481,0.13104 -1.18252,0.28239 -0.52773,0.15134 -2.25558,0.41198 -3.83875,0.58243 l -2.87685,0.30887 -2.65624,-0.30004 -2.65624,-0.29122 -2.25913,-0.59126 -2.25912,-0.59125 -2.28561,-1.07662 c -1.26098,-0.59007 -3.10358,-1.61803 -4.09466,-2.2856 l -1.80907,-1.21781 -2.3562,-2.27677 -2.34737,-2.28561 -1.5708,-2.33854 -1.56198,-2.34738 -0.91777,-2.11793 c -0.50661,-1.16537 -0.96752,-2.16309 -1.02366,-2.215 z m 37.51386,17.28762 c -0.0203,0.007 -0.0414,0.0104 -0.0618,0.0177 -0.0301,0.0107 -0.0581,0.0247 -0.0882,0.0353 l 0.0882,-0.0265 0.0618,-0.0265 z m -3.9623,1.09426 c -0.0413,0.008 -0.0822,0.0184 -0.12355,0.0265 l -0.49418,0.13237 -0.26474,0.009 c -0.0205,0.003 -0.0413,0.005 -0.0618,0.009 l 0.32651,-0.009 0.61773,-0.16767 z m -9.25712,0.32652 0.16767,0.0353 0.12354,0 c -0.0204,-0.002 -0.0413,-0.006 -0.0618,-0.009 l -0.0618,0 -0.0794,-0.0177 c -0.029,-0.004 -0.0593,-0.005 -0.0882,-0.009 z"
       style="fill:#ff6600;display:inline"
       inkscape:connector-curvature="0" />
    <path
       id="path4017"
       d="m 368.47154,301.75742 c -1.39857,0 -2.77702,0.10427 -4.12114,0.30004 l 4.18291,0 4.05937,0 c -1.34412,-0.19577 -2.72258,-0.30004 -4.12114,-0.30004 z m -4.18292,0.30887 c -0.36258,0.0536 -0.71865,0.10926 -1.07661,0.17649 l -0.1059,0.0265 -1.63257,0.45006 -2.40032,0.6442 -0.009,0 -2.81509,1.37666 -2.8239,1.37665 -1.83554,1.39431 -1.83555,1.3943 0,-0.009 1.83555,-1.3943 1.83554,-1.39431 2.8239,-1.37665 2.81509,-1.36783 c -11.00733,3.87637 -18.89372,14.35868 -18.89372,26.69476 0,15.18768 11.95314,27.57878 26.96833,28.27438 l 0.15885,0 1.94143,-0.053 1.81789,-0.0441 c 14.42178,-1.30526 25.71522,-13.41454 25.71522,-28.17731 0,-8.83513 -4.04701,-16.7225 -10.38669,-21.91177 l -1.63257,-1.12956 -2.10911,-1.45608 -0.0265,-0.0177 -2.29442,-1.07661 -2.11793,-0.98837 c -0.006,-0.002 -0.0115,-0.007 -0.0176,-0.009 -0.13498,-0.0493 -0.27,-0.10272 -0.40594,-0.15002 l -2.18853,-0.59125 -1.42078,-0.39712 c -0.0205,-0.004 -0.0413,-0.005 -0.0618,-0.009 -0.48372,-0.0978 -0.96374,-0.1831 -1.45608,-0.25592 l -4.12114,0 -4.24469,0 z m 18.32893,3.47693 c -1.37529,-0.79481 -2.82385,-1.481 -4.33293,-2.0385 l 2.03851,0.95306 2.29442,1.08544 z m -15.3197,52.78945 c 0.38936,0.0159 0.78042,0.0265 1.17369,0.0265 0.8353,0 1.66286,-0.0351 2.47974,-0.1059 l -1.71199,0.0353 -1.94144,0.0441 z m -4.19174,-56.06341 c -1.37871,0.26453 -2.72443,0.62877 -4.02407,1.08544 l 2.3915,-0.64421 1.63257,-0.44123 z m 11.12797,0.0706 1.359,0.37947 2.09146,0.56478 c -1.11812,-0.38443 -2.27389,-0.70088 -3.45046,-0.94425 z m -3.52989,0.91777 1.80907,0.20297 1.80906,0.20297 2.61212,0.86482 2.61211,0.856 2.13559,1.21781 2.13558,1.22664 1.95908,1.57079 1.95026,1.57963 1.57963,1.95026 1.5708,1.95026 1.21781,2.14441 1.21781,2.13558 0.86482,2.61211 0.86482,2.60329 0.34417,2.88569 0.34416,2.87685 -0.31769,2.80626 -0.32651,2.81509 -0.74128,2.3562 c -0.40904,1.297 -1.16889,3.19966 -1.68552,4.22703 l -0.93542,1.87084 -1.72082,2.27678 -1.72082,2.2856 -1.27076,1.11191 -1.26193,1.12074 -0.63538,-0.15002 c -0.34534,-0.0835 -0.89987,-0.40273 -1.23546,-0.70597 l -0.60891,-0.54714 -0.52065,0.13237 -0.52066,0.13237 0.60008,0.0353 0.60008,0.0265 0.34416,0.40594 0.33534,0.40594 -0.0883,0.93542 -0.0971,0.93542 -0.70597,-1.20016 -0.70598,-1.20017 -0.84717,0.18532 c -0.46595,0.10175 -0.97425,0.18306 -1.12957,0.18532 -0.15531,0.002 -0.5692,-0.0108 -0.92659,-0.0353 l -0.65303,-0.0529 -0.40594,-0.97072 c -0.22504,-0.53862 -0.41476,-1.11046 -0.41476,-1.27076 l 0,-0.30004 0.28239,0 0.28239,0 0,0.67068 0,0.66185 0.52066,0.46771 0.51183,0.45888 0.45889,0 c 0.24943,0 0.77191,-0.11534 1.16486,-0.26474 l 0.7148,-0.27356 -0.41476,-0.98837 c -0.22749,-0.54453 -0.41476,-1.10374 -0.41476,-1.23546 l 0,-0.23827 1.55315,-0.6442 1.55315,-0.64421 0.0176,-0.32651 c 0.01,-0.17929 0.0639,-0.74305 0.11472,-1.26194 l 0.0883,-0.94423 0.31769,-0.31769 0.30886,-0.30886 0,-0.93542 0,-0.93542 0.56478,-0.56478 0.56478,-0.56478 0,-0.54714 0,-0.54713 0.61773,-1.04131 0.60891,-1.0325 -0.29122,-0.45888 -0.29121,-0.46771 0.29121,-0.63538 0.29122,-0.63538 -0.32651,-0.70598 -0.32652,-0.70597 0.856,-2.15323 0.856,-2.14441 0.0882,-1.30606 0.0971,-1.31488 -0.29122,0.63538 -0.28239,0.62655 -0.62656,-0.15884 -0.63538,-0.15885 -1.05896,2.568 -1.05897,2.55916 -0.6442,-0.16767 -0.64421,-0.15884 -0.61773,0.61773 -0.62655,0.62655 0.15884,0.97072 0.15885,0.97955 -0.45006,0.95306 -0.45006,0.94425 -0.68833,0.17649 -0.68833,0.16767 -1.45607,1.32371 c -0.80199,0.72613 -1.72482,1.54786 -2.04734,1.82672 l -0.59125,0.503 -1.87084,-2.51504 -1.87967,-2.51504 -1.27076,-1.12074 -1.27958,-1.12074 0.46771,-1.37666 0.45888,-1.38548 0.8207,-1.20016 c 0.45047,-0.6618 1.00231,-1.64281 1.22664,-2.1797 0.22433,-0.5369 0.40594,-1.03414 0.40594,-1.11191 0,-0.0778 -0.19275,-0.0743 -0.43242,0.0176 l -0.43241,0.16767 0.1412,0.15002 0.15002,0.15002 -0.98837,1.82672 c -0.54383,1.00686 -1.30042,2.20741 -1.68552,2.66506 l -0.70598,0.82953 0,1.5002 0,1.5002 -0.45888,0.37946 -0.45889,0.38829 -0.42358,-0.63538 -0.41476,-0.63538 -0.32652,0 -0.31769,0 0.0618,-1.83554 0.0618,-1.83554 -0.63538,0 -0.63538,0 0.0618,1.68552 0.053,1.6767 -0.38829,-0.15885 -0.39711,-0.15002 -0.7148,-1.50902 -0.7148,-1.50903 -1.13839,-0.93542 -1.14721,-0.93542 -0.56479,-1.08544 c -0.31379,-0.59748 -0.52794,-1.13108 -0.46771,-1.19134 0.0603,-0.0602 0.504,0.43726 0.97955,1.11192 l 0.86482,1.22663 2.02086,0.20297 2.02086,0.20297 2.23265,-0.19414 2.23265,-0.19415 0.72363,-1.09426 c 0.39611,-0.59856 0.7148,-1.14413 0.7148,-1.21781 0,-0.0737 -0.41299,-0.26017 -0.91777,-0.40594 -0.50477,-0.14577 -1.17192,-0.35917 -1.48255,-0.47653 l -0.56478,-0.2118 0.28239,0.30004 c 0.15531,0.16602 0.71006,0.41561 1.22663,0.54713 l 0.93542,0.23827 -0.6089,0.76775 -0.60008,0.76775 -0.90895,0 -0.90012,0 -0.5736,-0.38829 -0.56479,-0.39711 -1.02366,-0.0882 -1.0325,-0.0971 -0.5383,0.48536 -0.53831,0.48536 -0.91777,0 -0.91777,0 -0.52948,-0.63538 c -0.29154,-0.34946 -0.54205,-0.7156 -0.54714,-0.8207 -0.005,-0.10509 0.15002,-0.24246 0.34417,-0.30886 0.19414,-0.0664 0.0828,-0.0817 -0.25592,-0.0265 l -0.61773,0.1059 -0.70598,-0.27357 -0.70597,-0.26474 0.30004,0.856 c 0.16469,0.47243 0.72975,1.49905 1.25311,2.27677 0.52335,0.77772 0.94424,1.58834 0.94424,1.80024 l 0,0.37947 -0.49418,0.25591 -0.49419,0.25592 -0.56478,-0.22062 c -0.31063,-0.12488 -0.86392,-0.23619 -1.23546,-0.24709 l -0.6795,-0.0265 -1.43843,1.23546 -1.44725,1.23546 -1.44726,0.72363 -1.43842,0.73245 -3.85641,4.04172 -3.8564,4.03289 -0.27356,-0.42358 c -0.14992,-0.23298 -0.66143,-1.35096 -1.13839,-2.48857 -0.47696,-1.13762 -1.1159,-3.01652 -1.41195,-4.17409 l -0.53831,-2.10029 -0.18532,-2.47092 -0.18532,-2.46209 0.33534,-2.50622 0.33534,-2.49739 0.72363,-2.29443 c 0.39848,-1.26356 1.14244,-3.1379 1.65904,-4.16527 l 0.94425,-1.87083 1.73846,-2.30326 1.73847,-2.31207 2.02086,-1.70317 c 1.10986,-0.93854 2.86626,-2.21846 3.90935,-2.84156 l 1.89732,-1.13839 2.16205,-0.82952 c 1.18663,-0.46077 2.21345,-0.78695 2.2856,-0.7148 0.0721,0.0722 -0.072,1.76416 -0.31769,3.75933 l -0.44123,3.62695 -0.0706,3.37987 -0.0706,3.37987 -0.84717,0.21179 c -0.46595,0.11798 -2.49916,0.53236 -4.51826,0.91777 -2.01909,0.38541 -4.72617,1.01028 -6.01845,1.38548 l -2.34738,0.6795 -0.31768,0.31769 -0.31769,0.31769 0.30886,0.31769 0.31769,0.31769 1.6414,0.37946 1.65022,0.38829 4.47413,0.31769 4.47413,0.30887 0.63538,-0.59126 0.63538,-0.60008 1.95026,0.17649 1.95026,0.16767 0.56478,-0.42358 0.56479,-0.43241 -0.31769,-0.32652 -0.31769,-0.32651 -4.20057,-0.26474 c -2.30916,-0.14738 -4.31404,-0.30155 -4.45648,-0.34417 -0.14241,-0.0426 0.85309,-0.48341 2.215,-0.97954 l 2.47975,-0.90895 3.37986,0 3.37987,0 3.01805,-0.44123 c 1.65908,-0.24324 4.21645,-0.73324 5.69194,-1.09427 l 2.68272,-0.66185 -2.12676,-0.0265 -2.11793,-0.0353 -0.67068,-3.1769 c -0.36733,-1.74729 -1.08815,-4.63827 -1.59727,-6.42439 -0.50913,-1.78612 -1.01404,-3.48224 -1.12957,-3.77698 l -0.21179,-0.5383 z m 11.96631,2.31208 2.08264,1.43843 1.54432,1.06779 c -1.14062,-0.92608 -2.34936,-1.76427 -3.62696,-2.50622 z m 4.6065,12.16928 c -0.71922,0 -2.57797,0.20343 -4.12996,0.45006 l -2.82391,0.45006 -4.27116,1.21781 -4.27116,1.20899 -2.20618,0.36181 -2.20618,0.35299 0.92659,0.83835 0.91777,0.83834 2.03851,-0.18531 2.03851,-0.18532 0.18532,0.5736 0.18532,0.57361 0.46771,0 c 0.26132,-10e-4 1.87437,-0.3698 3.58283,-0.8207 1.70847,-0.4509 3.81352,-1.08713 4.6771,-1.41195 0.86361,-0.32482 2.32498,-1.04287 3.2475,-1.59728 0.92254,-0.55441 1.96261,-1.2705 2.31207,-1.59727 0.34946,-0.32676 0.63538,-0.70128 0.63538,-0.82952 l 0,-0.23827 -1.30606,0 z m -22.07061,4.51825 0.0265,0.94425 0.0265,0.93542 -0.6795,0.97072 -0.67068,0.96189 0.61773,-0.52948 0.61773,-0.53831 0,0.83835 c 0,0.46413 0.0906,0.92895 0.19415,1.03249 0.10352,0.10354 0.1988,0.18617 0.21179,0.18532 0.0129,-8.5e-4 0.0642,-1.08092 0.11472,-2.40032 l 0.0883,-2.40033 -0.27357,0 -0.27356,0 z m 2.41798,1.39431 c -0.0374,-0.0365 -0.11567,0.54289 -0.19415,1.42078 l -0.16767,1.82671 -0.70598,0.19415 -0.70597,0.19414 0.58243,0.0265 0.58243,0.0265 0.33534,-0.33534 0.33534,-0.33534 0,-0.83835 0,-0.82952 0.56478,0.50301 c 0.31063,0.28113 0.56478,0.42492 0.56478,0.30887 0,-0.11607 -0.25415,-0.54052 -0.56478,-0.93542 -0.31063,-0.39491 -0.58208,-0.92284 -0.60891,-1.17369 -0.003,-0.0313 -0.0123,-0.0477 -0.0176,-0.053 z m 21.80586,0.27356 -0.27356,0.16767 c -0.1545,0.0955 -0.42845,0.43821 -0.60008,0.75893 l -0.30887,0.58243 0.30887,-0.19414 0.30886,-0.18532 0,0.44123 c 0,0.24214 0.082,0.43241 0.1765,0.43241 l 0.16767,0 -0.1765,-0.72362 -0.18532,-0.73245 0.29122,0.18532 0.29121,0.17649 0,-0.45889 0,-0.45006 z m -1.13838,1.57963 -0.27357,0.42358 c -0.15054,0.23298 -0.26439,0.6142 -0.25592,0.84718 l 0.0177,0.42358 0.23827,-0.56478 c 0.13349,-0.31063 0.25627,-0.69186 0.26474,-0.84717 l 0.009,-0.28239 z m -24.80628,0.43241 -0.44123,0.16767 c -0.24105,0.0925 -0.44124,0.22135 -0.44124,0.28239 0,0.061 0.11861,0.1059 0.26474,0.1059 0.14614,0 0.34636,-0.12003 0.44124,-0.27357 l 0.17649,-0.28239 z m 2.94746,2.2503 c 0.16455,0 0.449,0.15779 0.63538,0.34417 0.18638,0.18637 0.33534,0.44053 0.33534,0.56478 l 0,0.22061 -0.98837,0 -0.98837,0 0.35299,-0.56478 c 0.19397,-0.31063 0.48848,-0.56478 0.65303,-0.56478 z m 20.30567,0 0.29121,0.009 c 0.15814,0.002 0.4507,0.10994 0.65303,0.23827 l 0.37064,0.22944 -0.88247,2.23265 c -0.48571,1.22831 -0.98103,2.33621 -1.09427,2.45327 l -0.20297,0.2118 -0.48535,-0.36182 -0.48536,-0.35299 0.91777,-2.32972 0.91777,-2.32972 z m -3.23867,4.18292 0.45006,0.16767 c 0.24565,0.0943 0.4998,0.16767 0.56478,0.16767 0.065,0 0.11472,0.18343 0.11472,0.40593 l 0,0.40594 0.56478,0.17649 0.56478,0.18532 0.56478,-0.18532 0.56479,-0.17649 0,0.44123 0,0.44124 -1.06779,0 -1.05897,0 -0.63538,-0.43241 -0.62655,-0.44124 0,-0.58243 0,-0.5736 z m -0.71481,0.90012 c 0.0706,0 0.44477,0.32122 0.82953,0.70597 l 0.69715,0.69716 1.15604,0.18532 1.14721,0.18531 -0.31769,0.38829 -0.32651,0.37946 -0.90895,0 -0.90894,0 -0.75011,-0.68832 -0.7501,-0.68833 0,-0.58243 c 0,-0.31805 0.0618,-0.58243 0.13237,-0.58243 z m 0.13238,2.03851 0.98836,0.46771 0.98837,0.45888 0.009,0.28239 c 0.004,0.15532 -0.23935,0.69539 -0.54713,1.20016 l -0.56478,0.91777 -0.39712,0 c -0.21806,0 -0.67728,-0.22253 -1.02366,-0.50301 l -0.62657,-0.51183 0.58243,-1.15604 0.59126,-1.15603 z m 3.36221,0.7854 0.45006,0 0.44124,0 0,0.38828 c 0,0.2089 -0.48885,1.14592 -1.09427,2.08264 l -1.10309,1.70317 -1.01484,0.81187 c -0.55941,0.44637 -1.02367,0.93012 -1.02367,1.08544 -5.6e-4,0.15531 0.28601,0.82292 0.63538,1.48255 l 0.63538,1.20016 -0.30004,0.49419 -0.30886,0.49418 -2.09146,0.70598 c -1.15193,0.38828 -2.17969,0.81996 -2.27678,0.95307 l -0.17649,0.23826 -0.6089,-0.19414 -0.61773,-0.19414 -0.45007,0.37946 c -0.25124,0.20697 -0.88927,1.03779 -1.41195,1.85319 l -0.95307,1.48255 -0.26474,0 c -0.14509,0 -0.39519,-0.23789 -0.55596,-0.53831 l -0.29121,-0.54713 0,-2.59446 0,-2.59447 1.47372,-2.01204 1.46491,-2.02086 1.5355,-1.41195 c 0.84471,-0.77657 1.80654,-1.55865 2.13558,-1.74729 0.32901,-0.18865 0.6795,-0.34748 0.7854,-0.35299 l 0.19414,-0.0177 -0.0706,0.67068 -0.0706,0.67068 -0.59126,0.74127 -0.58243,0.74128 -0.30887,0 -0.31769,0 0,0.27356 0,0.27357 1.90614,-0.70598 1.90614,-0.70597 1.4649,-1.54433 1.45608,-1.54432 z m -4.45648,2.8239 c 0.14617,0 0.26474,0.12708 0.26474,0.2824 l 0,0.28239 -0.44123,0 -0.43241,0 0.16766,-0.28239 c 0.096,-0.15532 0.2951,-0.2824 0.44124,-0.2824 z"
       style="fill:#00004e;fill-opacity:1"
       inkscape:connector-curvature="0" />
    <path
       sodipodi:type="arc"
       style="fill:none;stroke:#00004e;stroke-width:4.54994488;stroke-linejoin:miter;stroke-miterlimit:4;stroke-opacity:1;stroke-dasharray:none"
       id="path4019"
       sodipodi:cx="286"
       sodipodi:cy="233.59402"
       sodipodi:rx="99"
       sodipodi:ry="99"
       d="m 385,233.59402 a 99,99 0 1 1 -198,0 99,99 0 1 1 198,0 z"
       transform="matrix(0.27929103,0,0,0.27929103,288.5943,264.81764)" />
    <g
       id="g4021"
       transform="matrix(0.28239086,0,0,0.28239086,259.75387,260.63642)">
      <text
         sodipodi:linespacing="125%"
         id="text4023"
         y="317.39075"
         x="384.42276"
         style="font-size:64px;font-style:normal;font-variant:normal;font-weight:bold;font-stretch:normal;text-align:center;line-height:125%;letter-spacing:0px;word-spacing:0px;text-anchor:middle;fill:#ff6600;fill-opacity:1;stroke:#ffed8e;stroke-width:4;stroke-miterlimit:4;stroke-opacity:1;stroke-dasharray:none;font-family:Tribeca;-inkscape-font-specification:Tribeca Bold"
         xml:space="preserve"><tspan
           id="tspan4025"
           y="317.39075"
           x="384.42276"
           sodipodi:role="line">30</tspan></text>
      <text
         xml:space="preserve"
         style="font-size:64px;font-style:normal;font-variant:normal;font-weight:bold;font-stretch:normal;text-align:center;line-height:125%;letter-spacing:0px;word-spacing:0px;text-anchor:middle;fill:#ff6600;fill-opacity:1;stroke:none;font-family:Tribeca;-inkscape-font-specification:Tribeca Bold"
         x="384.42276"
         y="317.39075"
         id="text4027"
         sodipodi:linespacing="125%"
         inkscape:export-filename="/home/ppp/Dokumentumok/mrtee/othr/mate_price_stickers/mate_50.png"
         inkscape:export-xdpi="600"
         inkscape:export-ydpi="600"><tspan
           sodipodi:role="line"
           x="384.42276"
           y="317.39075"
           id="tspan4029">30</tspan></text>
    </g>
    <use
       x="0"
       y="0"
       xlink:href="#path3103"
       id="use4049"
       transform="translate(67.43295,0)"
       width="134.64566"
       height="75.118111" />
    <use
       x="0"
       y="0"
       xlink:href="#path3105"
       id="use4051"
       transform="translate(67.43295,0)"
       width="134.64566"
       height="75.118111" />
    <use
       x="0"
       y="0"
       xlink:href="#path3107"
       id="use4053"
       transform="translate(67.43295,0)"
       width="134.64566"
       height="75.118111" />
    <use
       x="0"
       y="0"
       xlink:href="#path3109"
       id="use4055"
       transform="translate(67.43295,0)"
       width="134.64566"
       height="75.118111" />
    <use
       x="0"
       y="0"
       xlink:href="#g3111"
       id="use4057"
       transform="translate(67.43295,0)"
       width="134.64566"
       height="75.118111" />
  </g>
  <g
     transform="translate(-267.23992,-292.46789)"
     style="display:inline"
     inkscape:label="felso"
     id="layer2"
     inkscape:groupmode="layer" />
</svg>
